<?xml version="1.0" encoding="UTF-8"?>
<!DOCTYPE svg PUBLIC "-//W3C//DTD SVG 1.1//EN" "http://www.w3.org/Graphics/SVG/1.1/DTD/svg11.dtd">
<!-- Creator: CorelDRAW X6 -->
<svg xmlns="http://www.w3.org/2000/svg" xml:space="preserve" width="68.18mm" height="26.525mm" version="1.1" style="shape-rendering:geometricPrecision; text-rendering:geometricPrecision; image-rendering:optimizeQuality; fill-rule:evenodd; clip-rule:evenodd"
viewBox="0 0 6818 2653"
 xmlns:xlink="http://www.w3.org/1999/xlink">
 <defs>
  <style type="text/css">
   <![CDATA[
    .fil0 {fill:#EF7F1A}
    .fil2 {fill:#EF7F1A;fill-rule:nonzero}
    .fil1 {fill:#FEFEFE;fill-rule:nonzero}
   ]]>
  </style>
 </defs>
 <g id="Слой_x0020_1">
  <metadata id="CorelCorpID_0Corel-Layer"/>
  <g id="_753782016">
   <path class="fil0" d="M6544 1512c-143,60 -270,117 -435,184 -559,212 -1233,329 -1820,389 -783,76 -1597,77 -2376,-38 -526,-78 -1462,-280 -1697,-826 -243,-564 193,-906 666,-1083 218,-82 495,-134 494,-134l-334 -1c-80,0 -245,-14 -311,18 -145,70 -287,143 -410,250 -286,250 -404,566 -260,935 241,619 1116,835 1705,920 1246,180 3120,66 4349,-419 24,-11 627,-278 429,-195z"/>
   <path class="fil0" d="M1940 479c18,0 660,-25 744,-28 930,-20 2260,42 3103,341 469,167 1008,458 880,1051 -98,455 -551,660 -961,760 -66,16 -141,27 -205,44 9,6 462,3 513,3 99,0 113,-12 199,-58 58,-31 105,-60 160,-96 212,-138 367,-354 421,-601 136,-617 -346,-966 -856,-1153 -542,-198 -1171,-271 -1745,-305 -561,-34 -1176,-27 -1742,8 -146,8 -375,17 -512,32z"/>
   <path class="fil1" d="M2516 1000l77 0c82,0 146,30 146,91 0,77 -64,103 -136,103l-75 0 -15 23 30 0c90,0 128,19 157,83 22,48 54,132 63,168l117 0 -46 -113c-38,-91 -79,-118 -171,-138l0 -1c98,-5 175,-42 175,-119 0,-86 -89,-120 -270,-120l-149 0c-29,0 -42,32 -42,61l0 429 97 0 0 -422c0,-24 17,-45 41,-45zm785 467l-12 -24 -114 0c-81,0 -117,-41 -117,-109 0,-123 105,-147 207,-147l75 0 0 280 97 0 0 -347c0,-119 -113,-157 -221,-157 -84,0 -168,8 -241,47l7 25c58,-32 130,-50 221,-50 95,0 138,59 138,150l0 28 -73 0c-99,0 -318,15 -318,156 0,112 102,148 199,148l154 0zm407 -24l-15 24 114 0c141,0 273,-103 273,-255 0,-151 -128,-250 -253,-250 -86,0 -141,34 -172,51l0 -37 -97 0 0 675 97 0 0 -613c33,-19 90,-53 157,-53 61,0 158,46 158,226 0,198 -86,231 -201,231l-61 0zm587 -433l0 -227 -97 0 0 684 97 0 0 -432c41,-27 93,-49 155,-49 95,0 133,72 133,166l0 315 97 0 0 -301c0,-150 -97,-204 -201,-204 -96,0 -149,24 -184,48zm483 211c0,151 119,259 279,259 161,0 280,-108 280,-259 0,-151 -119,-259 -280,-259 -160,0 -279,108 -279,259zm109 0c0,-111 29,-241 170,-241 141,0 171,130 171,241 0,111 -29,241 -171,241 -141,0 -170,-130 -170,-241z"/>
   <path class="fil2" d="M2243 977l-166 0 0 238c0,148 -67,218 -263,218 -203,0 -349,-198 -349,-426 0,-235 117,-471 386,-471 150,0 256,31 323,75l13 -34c-67,-38 -187,-77 -359,-77 -296,0 -555,191 -555,484 0,327 275,484 541,484 162,0 329,-38 429,-127l0 -364z"/>
  </g>
 </g>
</svg>
